STARTFONT 2.1
FONT -FontForge-HeinzHeinrich-Roman-R-Normal--8-80-72-72-P-83-ISO10646-1
SIZE 16 72 72
FONTBOUNDINGBOX 18 15 -1 -4
COMMENT "Generated by fontforge, http://fontforge.sourceforge.net"
COMMENT "HeinzHeinrich is a trademark of Stefanie Koerner (pheist)."
STARTPROPERTIES 39
FOUNDRY "FontForge"
FAMILY_NAME "HeinzHeinrich"
WEIGHT_NAME "Roman"
SLANT "R"
SETWIDTH_NAME "Normal"
ADD_STYLE_NAME ""
PIXEL_SIZE 16
POINT_SIZE 80
RESOLUTION_X 72
RESOLUTION_Y 72
SPACING "P"
AVERAGE_WIDTH 83
CHARSET_REGISTRY "ISO10646"
CHARSET_ENCODING "1"
FONTNAME_REGISTRY ""
CHARSET_COLLECTIONS "ISO10646-1"
FONT_NAME "HeinzHeinrich-Regular"
FACE_NAME "HeinzHeinrich Regular"
COPYRIGHT "HeinzHeinrich is a trademark of Stefanie Koerner (pheist)."
FONT_VERSION "001.001"
FONT_ASCENT 12
FONT_DESCENT 4
UNDERLINE_POSITION -1
UNDERLINE_THICKNESS 1
X_HEIGHT 6
CAP_HEIGHT 9
RAW_ASCENT 800
RAW_DESCENT 200
NORM_SPACE 4
RELATIVE_WEIGHT 40
RELATIVE_SETWIDTH 50
SUPERSCRIPT_X 0
SUPERSCRIPT_Y 2
SUPERSCRIPT_SIZE 4
SUBSCRIPT_X 0
SUBSCRIPT_Y 0
SUBSCRIPT_SIZE 4
AVG_LOWERCASE_WIDTH 77
AVG_UPPERCASE_WIDTH 113
ENDPROPERTIES
CHARS 95
STARTCHAR space
ENCODING 32
SWIDTH 500 0
DWIDTH 4 0
BBX 1 1 0 0
BITMAP
00
ENDCHAR
STARTCHAR exclam
ENCODING 33
SWIDTH 375 0
DWIDTH 3 0
BBX 2 10 0 0
BITMAP
C0
C0
C0
C0
C0
C0
80
00
C0
C0
ENDCHAR
STARTCHAR quotedbl
ENCODING 34
SWIDTH 750 0
DWIDTH 6 0
BBX 5 4 0 6
BITMAP
D8
D8
48
90
ENDCHAR
STARTCHAR numbersign
ENCODING 35
SWIDTH 1250 0
DWIDTH 10 0
BBX 9 6 0 1
BITMAP
3300
7F80
3300
6600
FF00
6600
ENDCHAR
STARTCHAR dollar
ENCODING 36
SWIDTH 1375 0
DWIDTH 11 0
BBX 10 14 0 -3
BITMAP
0200
24C0
7FC0
E580
6400
FFC0
2580
0580
6580
F5C0
9E80
0400
0400
1800
ENDCHAR
STARTCHAR percent
ENCODING 37
SWIDTH 1750 0
DWIDTH 14 0
BBX 13 12 0 -1
BITMAP
0080
7180
D980
D980
DB00
7300
0670
06D8
0CD8
0CD8
0C70
0800
ENDCHAR
STARTCHAR ampersand
ENCODING 38
SWIDTH 1625 0
DWIDTH 13 0
BBX 12 10 0 0
BITMAP
7D80
D640
D0D0
54E0
78C0
D1C0
D2C0
D2D0
7CD0
3860
ENDCHAR
STARTCHAR quotesingle
ENCODING 39
SWIDTH 375 0
DWIDTH 3 0
BBX 2 4 0 6
BITMAP
C0
C0
40
80
ENDCHAR
STARTCHAR parenleft
ENCODING 40
SWIDTH 500 0
DWIDTH 4 0
BBX 3 12 0 -1
BITMAP
20
20
40
C0
C0
C0
C0
C0
C0
40
20
20
ENDCHAR
STARTCHAR parenright
ENCODING 41
SWIDTH 500 0
DWIDTH 4 0
BBX 3 12 0 -1
BITMAP
80
80
40
60
60
60
60
60
60
40
80
80
ENDCHAR
STARTCHAR asterisk
ENCODING 42
SWIDTH 1000 0
DWIDTH 8 0
BBX 7 5 0 1
BITMAP
54
38
FE
38
54
ENDCHAR
STARTCHAR plus
ENCODING 43
SWIDTH 750 0
DWIDTH 6 0
BBX 5 5 0 1
BITMAP
20
20
F8
20
20
ENDCHAR
STARTCHAR comma
ENCODING 44
SWIDTH 500 0
DWIDTH 4 0
BBX 3 4 0 -2
BITMAP
40
E0
60
40
ENDCHAR
STARTCHAR hyphen
ENCODING 45
SWIDTH 750 0
DWIDTH 6 0
BBX 5 1 0 3
BITMAP
F8
ENDCHAR
STARTCHAR period
ENCODING 46
SWIDTH 500 0
DWIDTH 4 0
BBX 3 3 0 -1
BITMAP
40
E0
40
ENDCHAR
STARTCHAR slash
ENCODING 47
SWIDTH 750 0
DWIDTH 6 0
BBX 5 12 0 -1
BITMAP
08
18
18
18
30
30
60
60
C0
C0
C0
80
ENDCHAR
STARTCHAR zero
ENCODING 48
SWIDTH 1125 0
DWIDTH 9 0
BBX 8 10 0 0
BITMAP
3C
66
C3
C3
C3
C3
C3
C3
66
3C
ENDCHAR
STARTCHAR one
ENCODING 49
SWIDTH 875 0
DWIDTH 7 0
BBX 6 10 0 0
BITMAP
10
30
70
F0
30
30
30
30
30
FC
ENDCHAR
STARTCHAR two
ENCODING 50
SWIDTH 1125 0
DWIDTH 9 0
BBX 8 10 0 0
BITMAP
7E
C7
C3
03
06
3C
60
E1
FF
BE
ENDCHAR
STARTCHAR three
ENCODING 51
SWIDTH 1125 0
DWIDTH 9 0
BBX 8 10 0 0
BITMAP
7E
C7
C3
06
3C
06
C3
C3
87
7E
ENDCHAR
STARTCHAR four
ENCODING 52
SWIDTH 1125 0
DWIDTH 9 0
BBX 8 10 0 0
BITMAP
04
0C
1C
2C
4C
8C
FF
0C
0C
3F
ENDCHAR
STARTCHAR five
ENCODING 53
SWIDTH 1125 0
DWIDTH 9 0
BBX 8 10 0 0
BITMAP
C1
FE
C0
FE
0F
07
C3
C3
82
7C
ENDCHAR
STARTCHAR six
ENCODING 54
SWIDTH 1125 0
DWIDTH 9 0
BBX 8 10 0 0
BITMAP
3C
43
C3
C0
FC
E3
C3
C3
42
3C
ENDCHAR
STARTCHAR seven
ENCODING 55
SWIDTH 1125 0
DWIDTH 9 0
BBX 8 10 0 0
BITMAP
B9
CF
86
02
04
18
38
38
38
10
ENDCHAR
STARTCHAR eight
ENCODING 56
SWIDTH 1125 0
DWIDTH 9 0
BBX 8 10 0 0
BITMAP
7C
C2
C6
7C
3E
CF
C3
C3
42
3C
ENDCHAR
STARTCHAR nine
ENCODING 57
SWIDTH 1125 0
DWIDTH 9 0
BBX 8 10 0 0
BITMAP
7E
C3
C3
C3
C7
3F
03
C3
C2
7C
ENDCHAR
STARTCHAR colon
ENCODING 58
SWIDTH 500 0
DWIDTH 4 0
BBX 3 7 0 -1
BITMAP
40
E0
40
00
40
E0
40
ENDCHAR
STARTCHAR semicolon
ENCODING 59
SWIDTH 500 0
DWIDTH 4 0
BBX 3 8 0 -2
BITMAP
40
E0
40
00
40
E0
60
40
ENDCHAR
STARTCHAR less
ENCODING 60
SWIDTH 625 0
DWIDTH 5 0
BBX 4 6 0 1
BITMAP
10
20
C0
60
30
10
ENDCHAR
STARTCHAR equal
ENCODING 61
SWIDTH 875 0
DWIDTH 7 0
BBX 6 3 0 2
BITMAP
FC
00
FC
ENDCHAR
STARTCHAR greater
ENCODING 62
SWIDTH 625 0
DWIDTH 5 0
BBX 4 6 0 1
BITMAP
80
40
30
60
C0
80
ENDCHAR
STARTCHAR question
ENCODING 63
SWIDTH 1000 0
DWIDTH 8 0
BBX 7 10 0 0
BITMAP
3C
4E
E6
4E
1C
18
10
00
18
18
ENDCHAR
STARTCHAR at
ENCODING 64
SWIDTH 1500 0
DWIDTH 12 0
BBX 11 12 0 -2
BITMAP
1F00
3080
6240
CF20
C920
CB20
DDC0
6880
3000
1F00
0080
0100
ENDCHAR
STARTCHAR A
ENCODING 65
SWIDTH 1625 0
DWIDTH 13 0
BBX 12 14 0 -4
BITMAP
1900
2780
2700
2B80
0D80
14C0
1FC0
28E0
28E0
79F0
8020
8400
8400
7800
ENDCHAR
STARTCHAR B
ENCODING 66
SWIDTH 1375 0
DWIDTH 11 0
BBX 10 14 0 -4
BITMAP
0780
5CC0
34C0
34C0
3780
7CC0
B4C0
34C0
34C0
7F80
A000
8400
8400
7800
ENDCHAR
STARTCHAR C
ENCODING 67
SWIDTH 1250 0
DWIDTH 10 0
BBX 9 10 0 0
BITMAP
1880
6300
CC00
DA00
DA00
DA00
DA80
CA80
6300
1E00
ENDCHAR
STARTCHAR D
ENCODING 68
SWIDTH 1375 0
DWIDTH 11 0
BBX 10 14 0 -4
BITMAP
8000
7F00
3480
34C0
74C0
34C0
74C0
B4C0
3480
7F00
A000
8400
8400
7800
ENDCHAR
STARTCHAR E
ENCODING 69
SWIDTH 1375 0
DWIDTH 11 0
BBX 10 10 0 0
BITMAP
1880
6300
CC00
DA00
DBC0
DAC0
DA40
CA00
6280
1F00
ENDCHAR
STARTCHAR F
ENCODING 70
SWIDTH 1125 0
DWIDTH 9 0
BBX 8 14 0 -4
BITMAP
0D
5F
34
35
7E
B4
34
34
3C
4F
80
84
84
78
ENDCHAR
STARTCHAR G
ENCODING 71
SWIDTH 1375 0
DWIDTH 11 0
BBX 10 10 0 0
BITMAP
1880
6300
CC00
DA00
DBC0
DAC0
DAC0
CA80
6300
1E00
ENDCHAR
STARTCHAR H
ENCODING 72
SWIDTH 1375 0
DWIDTH 11 0
BBX 10 14 0 -4
BITMAP
1080
33C0
7580
3580
7FC0
B580
3580
3580
3580
7DC0
9480
8400
8400
7800
ENDCHAR
STARTCHAR I
ENCODING 73
SWIDTH 1125 0
DWIDTH 9 0
BBX 8 14 0 -4
BITMAP
70
9A
96
56
16
16
16
16
17
7C
98
90
84
78
ENDCHAR
STARTCHAR J
ENCODING 74
SWIDTH 1125 0
DWIDTH 9 0
BBX 8 14 0 -4
BITMAP
70
9A
96
5E
1E
36
56
16
17
7C
98
90
84
78
ENDCHAR
STARTCHAR K
ENCODING 75
SWIDTH 1375 0
DWIDTH 11 0
BBX 10 14 0 -4
BITMAP
2200
7480
B580
36C0
74C0
BD00
B6C0
34C0
74C0
DCC0
8440
8400
8400
7800
ENDCHAR
STARTCHAR L
ENCODING 76
SWIDTH 1125 0
DWIDTH 9 0
BBX 8 14 0 -4
BITMAP
05
1E
74
34
34
34
74
34
35
6E
84
80
84
78
ENDCHAR
STARTCHAR M
ENCODING 77
SWIDTH 2000 0
DWIDTH 16 0
BBX 15 14 0 -4
BITMAP
2528
77BC
BDEE
35AC
3DAC
75AC
B5AC
35AC
35AC
5DEE
9084
8000
8400
7800
ENDCHAR
STARTCHAR N
ENCODING 78
SWIDTH 1375 0
DWIDTH 11 0
BBX 10 14 0 -4
BITMAP
2500
7780
BDC0
3580
3580
7580
B580
3580
3580
55C0
9480
8400
8400
7800
ENDCHAR
STARTCHAR O
ENCODING 79
SWIDTH 1375 0
DWIDTH 11 0
BBX 10 10 0 0
BITMAP
0900
3300
6E80
DAC0
DAC0
DAC0
DAC0
5A80
3300
1E00
ENDCHAR
STARTCHAR P
ENCODING 80
SWIDTH 1375 0
DWIDTH 11 0
BBX 10 14 0 -4
BITMAP
2100
7380
B6C0
3CC0
74C0
B4C0
B4C0
34C0
3580
7E00
B000
B400
9400
7800
ENDCHAR
STARTCHAR Q
ENCODING 81
SWIDTH 1500 0
DWIDTH 12 0
BBX 11 12 0 -2
BITMAP
0900
3300
6E80
DAC0
DAC0
DAC0
DAC0
5AA0
3320
1E60
01C0
0080
ENDCHAR
STARTCHAR R
ENCODING 82
SWIDTH 1625 0
DWIDTH 13 0
BBX 12 14 0 -4
BITMAP
2080
7180
B2C0
34E0
7500
BEC0
B4C0
34C0
34D0
5C60
8000
8400
8400
7800
ENDCHAR
STARTCHAR S
ENCODING 83
SWIDTH 1375 0
DWIDTH 11 0
BBX 10 14 0 -4
BITMAP
20C0
7FC0
E980
6800
FFC0
2580
0580
0580
75C0
DE80
8000
8400
8400
7800
ENDCHAR
STARTCHAR T
ENCODING 84
SWIDTH 1250 0
DWIDTH 10 0
BBX 9 10 0 0
BITMAP
7800
9E80
2F00
5A00
DA00
DA00
DA80
CA80
6300
1E00
ENDCHAR
STARTCHAR U
ENCODING 85
SWIDTH 1625 0
DWIDTH 13 0
BBX 12 14 0 -4
BITMAP
2040
74E0
B4C0
34C0
74C0
B4C0
B4C0
34C0
35D0
5EE0
8040
8400
8400
7800
ENDCHAR
STARTCHAR V
ENCODING 86
SWIDTH 1375 0
DWIDTH 11 0
BBX 10 14 0 -4
BITMAP
2080
74C0
B4C0
34C0
74C0
B4C0
B480
3500
3600
5C00
8000
8000
8400
7800
ENDCHAR
STARTCHAR W
ENCODING 87
SWIDTH 2250 0
DWIDTH 18 0
BBX 17 14 0 -4
BITMAP
208200
74D300
B4D380
34D300
74D300
B4D300
B4D300
34D300
35D700
5EFB80
800100
840000
840000
780000
ENDCHAR
STARTCHAR X
ENCODING 88
SWIDTH 1375 0
DWIDTH 11 0
BBX 10 14 0 -4
BITMAP
7180
7B80
8D00
0D00
3F80
2D00
0D00
0D00
7740
E380
8000
8400
8400
7800
ENDCHAR
STARTCHAR Y
ENCODING 89
SWIDTH 1500 0
DWIDTH 12 0
BBX 11 14 0 -4
BITMAP
2080
74C0
B4E0
34C0
74C0
B4C0
B4C0
34C0
35C0
5EC0
0040
1040
1080
0F00
ENDCHAR
STARTCHAR Z
ENCODING 90
SWIDTH 1375 0
DWIDTH 11 0
BBX 10 14 0 -4
BITMAP
4F80
3FC0
02C0
0280
0780
0AC0
02C0
02C0
3F80
7F00
8000
8400
8400
7800
ENDCHAR
STARTCHAR bracketleft
ENCODING 91
SWIDTH 500 0
DWIDTH 4 0
BBX 3 12 0 -1
BITMAP
E0
C0
C0
C0
C0
C0
C0
C0
C0
C0
C0
E0
ENDCHAR
STARTCHAR backslash
ENCODING 92
SWIDTH 750 0
DWIDTH 6 0
BBX 5 12 0 -1
BITMAP
80
C0
C0
C0
60
60
30
30
18
18
18
08
ENDCHAR
STARTCHAR bracketright
ENCODING 93
SWIDTH 500 0
DWIDTH 4 0
BBX 3 12 0 -1
BITMAP
E0
60
60
60
60
60
60
60
60
60
60
E0
ENDCHAR
STARTCHAR asciicircum
ENCODING 94
SWIDTH 875 0
DWIDTH 7 0
BBX 6 3 0 7
BITMAP
30
68
C4
ENDCHAR
STARTCHAR underscore
ENCODING 95
SWIDTH 875 0
DWIDTH 7 0
BBX 6 1 0 0
BITMAP
FC
ENDCHAR
STARTCHAR grave
ENCODING 96
SWIDTH 500 0
DWIDTH 4 0
BBX 3 3 0 7
BITMAP
80
C0
20
ENDCHAR
STARTCHAR a
ENCODING 97
SWIDTH 1125 0
DWIDTH 9 0
BBX 8 8 0 -1
BITMAP
08
7E
66
66
66
EE
77
22
ENDCHAR
STARTCHAR b
ENCODING 98
SWIDTH 1000 0
DWIDTH 8 0
BBX 7 10 0 -1
BITMAP
60
60
64
6E
76
66
66
E6
7C
40
ENDCHAR
STARTCHAR c
ENCODING 99
SWIDTH 875 0
DWIDTH 7 0
BBX 6 8 0 -1
BITMAP
04
7C
60
60
60
E4
38
10
ENDCHAR
STARTCHAR d
ENCODING 100
SWIDTH 1000 0
DWIDTH 8 0
BBX 7 10 0 -1
BITMAP
18
0C
4C
EC
DC
CC
CC
CC
7E
04
ENDCHAR
STARTCHAR e
ENCODING 101
SWIDTH 1000 0
DWIDTH 8 0
BBX 7 8 0 -1
BITMAP
04
7E
66
68
70
E2
3C
10
ENDCHAR
STARTCHAR f
ENCODING 102
SWIDTH 750 0
DWIDTH 6 0
BBX 5 14 0 -4
BITMAP
10
38
60
68
70
E0
60
60
60
60
60
60
60
40
ENDCHAR
STARTCHAR g
ENCODING 103
SWIDTH 1125 0
DWIDTH 9 0
BBX 8 10 0 -3
BITMAP
08
7E
67
66
66
EE
77
06
66
3C
ENDCHAR
STARTCHAR h
ENCODING 104
SWIDTH 1000 0
DWIDTH 8 0
BBX 7 11 0 -2
BITMAP
60
60
64
6E
76
66
66
E6
66
44
08
ENDCHAR
STARTCHAR i
ENCODING 105
SWIDTH 500 0
DWIDTH 4 0
BBX 3 11 0 -1
BITMAP
C0
C0
80
00
E0
C0
C0
C0
C0
E0
40
ENDCHAR
STARTCHAR j
ENCODING 106
SWIDTH 500 0
DWIDTH 4 0
BBX 4 13 -1 -3
BITMAP
60
60
40
00
70
60
60
60
60
70
60
40
80
ENDCHAR
STARTCHAR k
ENCODING 107
SWIDTH 1000 0
DWIDTH 8 0
BBX 7 10 0 -1
BITMAP
60
60
64
6E
76
66
7C
E6
66
44
ENDCHAR
STARTCHAR l
ENCODING 108
SWIDTH 500 0
DWIDTH 4 0
BBX 3 10 0 -1
BITMAP
80
C0
C0
C0
C0
C0
C0
C0
E0
40
ENDCHAR
STARTCHAR m
ENCODING 109
SWIDTH 1625 0
DWIDTH 13 0
BBX 12 8 0 -1
BITMAP
4440
EEE0
7760
6660
6660
E660
7770
2220
ENDCHAR
STARTCHAR n
ENCODING 110
SWIDTH 1125 0
DWIDTH 9 0
BBX 8 8 0 -1
BITMAP
44
EF
76
66
66
E6
77
22
ENDCHAR
STARTCHAR o
ENCODING 111
SWIDTH 1000 0
DWIDTH 8 0
BBX 7 8 0 -1
BITMAP
04
7E
66
66
66
E6
7C
20
ENDCHAR
STARTCHAR p
ENCODING 112
SWIDTH 1125 0
DWIDTH 9 0
BBX 8 11 0 -4
BITMAP
08
6E
F6
66
66
66
FF
64
60
60
20
ENDCHAR
STARTCHAR q
ENCODING 113
SWIDTH 1125 0
DWIDTH 9 0
BBX 8 11 0 -4
BITMAP
10
76
6F
66
66
66
FF
26
06
06
04
ENDCHAR
STARTCHAR r
ENCODING 114
SWIDTH 875 0
DWIDTH 7 0
BBX 6 8 0 -1
BITMAP
48
FC
68
60
60
E0
70
20
ENDCHAR
STARTCHAR s
ENCODING 115
SWIDTH 875 0
DWIDTH 7 0
BBX 6 8 0 -1
BITMAP
10
78
C0
DC
EC
0C
78
20
ENDCHAR
STARTCHAR t
ENCODING 116
SWIDTH 625 0
DWIDTH 5 0
BBX 4 10 0 -1
BITMAP
20
60
60
F0
60
60
60
60
70
20
ENDCHAR
STARTCHAR u
ENCODING 117
SWIDTH 1125 0
DWIDTH 9 0
BBX 8 8 0 -1
BITMAP
44
EF
66
66
66
EE
77
22
ENDCHAR
STARTCHAR v
ENCODING 118
SWIDTH 1000 0
DWIDTH 8 0
BBX 7 8 0 -1
BITMAP
44
EE
66
66
66
6C
70
20
ENDCHAR
STARTCHAR w
ENCODING 119
SWIDTH 1625 0
DWIDTH 13 0
BBX 12 8 0 -1
BITMAP
4440
EEF0
6660
6660
6660
6660
3BF0
1120
ENDCHAR
STARTCHAR x
ENCODING 120
SWIDTH 1000 0
DWIDTH 8 0
BBX 7 8 0 -1
BITMAP
24
76
34
38
70
B0
B8
10
ENDCHAR
STARTCHAR y
ENCODING 121
SWIDTH 1000 0
DWIDTH 8 0
BBX 7 10 0 -3
BITMAP
44
EE
66
66
66
6E
76
26
04
18
ENDCHAR
STARTCHAR z
ENCODING 122
SWIDTH 750 0
DWIDTH 6 0
BBX 5 10 0 -3
BITMAP
60
B0
30
60
38
18
18
30
40
20
ENDCHAR
STARTCHAR braceleft
ENCODING 123
SWIDTH 625 0
DWIDTH 5 0
BBX 4 12 0 -1
BITMAP
20
70
60
60
60
C0
60
60
60
60
70
20
ENDCHAR
STARTCHAR bar
ENCODING 124
SWIDTH 375 0
DWIDTH 3 0
BBX 2 13 0 -2
BITMAP
40
C0
C0
C0
C0
C0
C0
C0
C0
C0
C0
C0
80
ENDCHAR
STARTCHAR braceright
ENCODING 125
SWIDTH 625 0
DWIDTH 5 0
BBX 4 12 0 -1
BITMAP
40
E0
60
60
60
30
60
60
60
60
E0
40
ENDCHAR
STARTCHAR asciitilde
ENCODING 126
SWIDTH 875 0
DWIDTH 7 0
BBX 6 3 0 7
BITMAP
64
B8
10
ENDCHAR
ENDFONT
